<svg width="50" height="50" viewBox="0 0 50 50" fill="none" xmlns="http://www.w3.org/2000/svg">
<path d="M49.5004 25C49.5004 38.531 38.5313 49.5 25.0002 49.5C11.4691 49.5 0.5 38.531 0.5 25C0.5 11.469 11.4691 0.5 25.0002 0.5C38.5313 0.5 49.5004 11.469 49.5004 25Z" fill="white" stroke="black"/>
<path d="M38.7073 25.7071C39.0978 25.3166 39.0978 24.6834 38.7073 24.2929L32.3434 17.9289C31.9528 17.5384 31.3197 17.5384 30.9291 17.9289C30.5386 18.3195 30.5386 18.9526 30.9291 19.3431L36.586 25L30.9291 30.6569C30.5386 31.0474 30.5386 31.6805 30.9291 32.0711C31.3197 32.4616 31.9528 32.4616 32.3434 32.0711L38.7073 25.7071ZM13 26H38.0002V24H13V26Z" fill="black"/>
</svg>
