<svg width="400" height="200" viewBox="0 0 400 200" fill="none" xmlns="http://www.w3.org/2000/svg">
<rect width="400" height="200" fill="#317039"/>
<path d="M124.2 90.28H131.36V80.08H134.68V101.84H131.36V93H124.2V90.28ZM126.36 97.76L124.8 100.32C120.68 99.04 117.44 96.36 115.8 92.88C114.28 96.8 111.04 99.84 106.8 101.24L105.2 98.72C110.48 96.92 114.08 92.56 114.08 87.72V87.04H106.12V84.4H114.08V79.88H117.36V84.4H125.28V87.04H117.36V87.72C117.36 92.2 121.08 96.2 126.36 97.76ZM122.8 113.36C128.24 113.36 131.52 111.84 131.52 109.32C131.52 106.84 128.28 105.32 122.8 105.32C117.4 105.32 114.16 106.84 114.16 109.32C114.16 111.84 117.4 113.36 122.8 113.36ZM122.8 102.76C130.24 102.76 134.8 105.16 134.8 109.32C134.8 113.52 130.24 115.92 122.8 115.92C115.44 115.92 110.88 113.52 110.88 109.32C110.88 105.16 115.44 102.76 122.8 102.76ZM172.877 97.6L171.477 100.32C165.997 99.16 160.357 95.44 158.037 90.32C155.717 95.44 150.117 99.16 144.597 100.32L143.237 97.6C149.517 96.48 156.317 91.2 156.317 85.24V82.48H159.757V85.24C159.757 91.2 166.597 96.48 172.877 97.6ZM159.677 108.6H174.477V111.28H141.917V108.6H156.397V99.88H159.677V108.6ZM204.954 106.68V94.24H194.834V91.64H204.954V87.4H194.834V84.76H204.954V80.12H208.274V106.68H204.954ZM199.034 97.32L199.394 100.04C193.634 101.08 188.794 101.36 183.514 101.36H180.794V82.68H184.074V98.6C188.994 98.56 193.674 98.28 199.034 97.32ZM188.554 112.48H209.194V115.16H185.274V104.4H188.554V112.48ZM254.036 97.28V99.96H229.396V83.36H253.676V86.08H232.636V97.28H254.036ZM225.236 108.4H257.796V111.12H225.236V108.4ZM283.873 95.84L284.233 98.48C278.353 99.44 273.473 99.64 266.833 99.64H263.953V89.48H276.913V84.92H263.833V82.24H280.153V92H267.153V96.96C273.513 96.96 278.193 96.76 283.873 95.84ZM271.513 105.96V112.84H288.313V105.96H271.513ZM268.313 115.48V103.36H291.513V115.48H268.313ZM288.233 80.12H291.513V101.36H288.233V80.12Z" fill="white"/>
</svg>
