<svg width="400" height="200" viewBox="0 0 400 200" fill="none" xmlns="http://www.w3.org/2000/svg">
<rect width="400" height="200" fill="#0078C2"/>
<path d="M127.44 83.92V86.56H105.64V83.92H114.92V79.76H118.2V83.92H127.44ZM110.92 94.72C110.92 97.08 113.12 98.64 116.56 98.64C119.96 98.64 122.2 97.08 122.2 94.72C122.2 92.32 119.96 90.8 116.56 90.8C113.12 90.8 110.92 92.32 110.92 94.72ZM125.32 94.72C125.32 98.64 121.8 101.08 116.56 101.08C111.32 101.08 107.8 98.64 107.8 94.72C107.8 90.76 111.32 88.32 116.56 88.32C121.8 88.32 125.32 90.76 125.32 94.72ZM114.56 106.32V112.84H131.36V106.32H114.56ZM111.36 115.48V103.72H134.56V115.48H111.36ZM131.28 80.08H134.56V101.8H131.28V80.08ZM146.957 84.44V103.8C150.397 103.76 154.197 103.52 158.477 102.68L158.797 105.52C153.957 106.44 149.837 106.64 145.957 106.64H143.677V84.44H146.957ZM169.197 80.08H172.357V115.92H169.197V97.4H164.117V114.12H161.037V80.88H164.117V94.68H169.197V80.08ZM183.394 96.28V104.6C189.914 104.6 194.554 104.36 199.914 103.32L200.274 106.04C194.674 107.04 189.874 107.32 183.034 107.32H180.194V93.6H193.074V86.08H180.074V83.4H196.314V96.28H183.394ZM212.234 94.32V97.08H206.354V116H203.074V80.04H206.354V94.32H212.234ZM244.356 90.28H251.516V80.08H254.836V101.84H251.516V93H244.356V90.28ZM246.516 97.76L244.956 100.32C240.836 99.04 237.596 96.36 235.956 92.88C234.436 96.8 231.196 99.84 226.956 101.24L225.356 98.72C230.636 96.92 234.236 92.56 234.236 87.72V87.04H226.276V84.4H234.236V79.88H237.516V84.4H245.436V87.04H237.516V87.72C237.516 92.2 241.236 96.2 246.516 97.76ZM242.956 113.36C248.396 113.36 251.676 111.84 251.676 109.32C251.676 106.84 248.436 105.32 242.956 105.32C237.556 105.32 234.316 106.84 234.316 109.32C234.316 111.84 237.556 113.36 242.956 113.36ZM242.956 102.76C250.396 102.76 254.956 105.16 254.956 109.32C254.956 113.52 250.396 115.92 242.956 115.92C235.596 115.92 231.036 113.52 231.036 109.32C231.036 105.16 235.596 102.76 242.956 102.76ZM265.073 96.84L264.033 94.32C270.753 93.64 276.193 90.72 276.513 86.52H265.393V83.92H276.673V80.04H279.953V83.92H291.193V86.52H280.073C280.393 90.72 285.833 93.64 292.513 94.32L291.433 96.84C285.553 96.2 280.473 93.92 278.273 90.2C276.113 93.92 270.953 96.2 265.073 96.84ZM269.433 105.28V112.48H290.953V115.16H266.153V105.28H269.433ZM261.993 99H294.553V101.68H280.193V108.72H276.913V101.68H261.993V99Z" fill="white"/>
</svg>
