<svg width="400" height="200" viewBox="0 0 400 200" fill="none" xmlns="http://www.w3.org/2000/svg">
<rect width="400" height="200" fill="#FD5163"/>
<path d="M109.92 86.24V104.28C116.28 104.28 120.88 104 126.08 103.08L126.44 105.8C120.96 106.84 116.24 107.08 109.48 107.08H106.64V83.52H123.32V86.24H109.92ZM138.64 94.24V96.96H132.72V116.04H129.44V80.08H132.72V94.24H138.64ZM153.997 86.48V91.04C153.997 96.76 158.077 103.12 163.277 105.56L161.397 108.2C157.397 106.2 154.037 102 152.397 97.2C150.757 102.44 147.277 107 143.237 109.08L141.317 106.48C146.437 103.92 150.757 97.12 150.757 91.04V86.48H142.557V83.76H161.957V86.48H153.997ZM175.437 94.56V97.32H169.517V115.96H166.237V80.12H169.517V94.56H175.437ZM183.954 84.04V104.92C189.714 104.92 194.074 104.6 198.994 103.64L199.354 106.36C194.154 107.4 189.594 107.68 183.394 107.68H180.674V84.04H183.954ZM204.994 80.08H208.274V116H204.994V99.28H194.274V96.6H204.994V91.12H194.274V88.44H204.994V80.08ZM247.836 92.52V101.48H244.716V80.76H247.836V89.84H252.396V80.08H255.556V102.8H252.396V92.52H247.836ZM243.276 84.36L243.316 86.96H225.076V84.36H232.596V80.36H235.836V84.36H243.276ZM229.516 94.96C229.516 97.2 231.396 98.68 234.236 98.68C237.036 98.68 238.956 97.2 238.956 94.96C238.956 92.76 237.036 91.28 234.236 91.28C231.396 91.28 229.516 92.76 229.516 94.96ZM241.876 94.96C241.876 98.72 238.756 101.12 234.236 101.12C229.716 101.12 226.556 98.72 226.556 94.96C226.556 91.28 229.716 88.84 234.236 88.84C238.756 88.84 241.876 91.28 241.876 94.96ZM243.756 113.4C249.196 113.4 252.476 112.04 252.476 109.68C252.476 107.28 249.196 105.92 243.756 105.92C238.276 105.92 234.996 107.28 234.996 109.68C234.996 112.04 238.276 113.4 243.756 113.4ZM243.756 103.4C251.236 103.4 255.756 105.64 255.756 109.68C255.756 113.68 251.236 115.92 243.756 115.92C236.276 115.92 231.756 113.68 231.756 109.68C231.756 105.64 236.276 103.4 243.756 103.4ZM265.673 107.4V104.76H290.513V115.96H287.233V107.4H265.673ZM269.593 87.56V91.72H287.033V87.56H269.593ZM279.953 98.6H294.513V101.28H262.033V98.6H276.673V94.32H266.353V80.92H269.593V85H287.033V80.92H290.273V94.32H279.953V98.6Z" fill="white"/>
</svg>
