<svg width="400" height="200" viewBox="0 0 400 200" fill="none" xmlns="http://www.w3.org/2000/svg">
<rect width="400" height="200" fill="#FD5163"/>
<path d="M111.4 87.28V103.28C116.64 103.2 121 102.92 125.76 102.12L126.28 106.48C120.72 107.48 115.68 107.68 109.28 107.68H106.16V83H123.32V87.28H111.4ZM138.92 93.2V97.56H133.56V116.52H128.28V79.6H133.56V93.2H138.92ZM155.037 87.48V89.52C155.037 95.12 157.957 101.64 163.997 104.44L161.077 108.6C156.997 106.72 154.117 103.04 152.477 98.68C150.837 103.48 147.877 107.52 143.677 109.52L140.717 105.32C146.757 102.52 149.757 95.6 149.757 89.52V87.48H142.117V83.12H162.357V87.48H155.037ZM175.717 93.64V98H170.357V116.44H165.077V79.6H170.357V93.64H175.717ZM185.434 83.36V104.2C190.514 104.12 194.474 103.88 198.754 103.04L199.274 107.4C194.234 108.36 189.594 108.6 183.194 108.6H180.194V83.36H185.434ZM203.954 79.56H209.234V116.56H203.954V99.8H194.194V95.52H203.954V91.52H194.194V87.24H203.954V79.56ZM248.752 92.96V101.48H243.832V80.28H248.752V88.68H251.472V79.6H256.472V102.64H251.472V92.96H248.752ZM242.792 83.36V87.44H224.872V83.36H231.232V80H236.432V83.36H242.792ZM230.632 95.04C230.632 96.76 231.952 97.72 233.912 97.72C235.872 97.72 237.152 96.76 237.152 95.04C237.152 93.32 235.872 92.4 233.912 92.4C231.952 92.4 230.632 93.32 230.632 95.04ZM241.832 95.04C241.832 98.84 238.552 101.48 233.912 101.48C229.232 101.48 225.952 98.84 225.952 95.04C225.952 91.24 229.232 88.64 233.912 88.64C238.552 88.64 241.832 91.24 241.832 95.04ZM243.992 112.52C248.912 112.52 251.392 111.68 251.392 109.76C251.392 107.84 248.912 107 243.992 107C239.072 107 236.592 107.84 236.592 109.76C236.592 111.68 239.072 112.52 243.992 112.52ZM243.992 103.04C251.912 103.04 256.672 105.48 256.672 109.76C256.672 114.04 251.912 116.44 243.992 116.44C236.072 116.44 231.312 114.04 231.312 109.76C231.312 105.48 236.072 103.04 243.992 103.04ZM265.548 108.72V104.52H291.148V116.48H285.868V108.72H265.548ZM271.348 87.76V90.64H285.708V87.76H271.348ZM281.108 97.8H295.188V102H261.868V97.8H275.828V94.76H266.108V80.56H271.348V83.8H285.708V80.56H290.948V94.76H281.108V97.8Z" fill="white"/>
</svg>
