<svg width="400" height="200" viewBox="0 0 400 200" fill="none" xmlns="http://www.w3.org/2000/svg">
<rect width="400" height="200" fill="#F18A01"/>
<path d="M118.16 94.4V86.2H110.96V94.4H118.16ZM123.36 82.04V98.56H105.8V82.04H123.36ZM114.96 106.24V111.88H128.56V106.24H114.96ZM109.76 116V102.12H133.72V116H109.76ZM138.6 87.76V92.08H133.72V100.52H128.44V79.6H133.72V87.76H138.6ZM167.037 106.76V97.72H162.557V93.48H167.037V90.28H162.557V86.04H167.037V79.6H172.317V106.76H167.037ZM150.437 86.44V97.92C151.557 97.92 152.717 97.88 153.877 97.8V86.44H150.437ZM162.317 97.2L162.637 101.04C155.797 102.2 147.877 102.32 142.077 102.32L141.517 98.04C142.717 98.04 143.997 98.04 145.357 98.04V86.44H142.437V82.24H161.877V86.44H158.957V97.52C160.117 97.44 161.237 97.32 162.317 97.2ZM153.317 111.6H173.157V115.8H148.037V104.72H153.317V111.6ZM200.034 83.48L199.994 87.6H178.314V83.48H186.474V79.56H191.794V83.48H200.034ZM185.154 96C185.154 98.04 186.794 99.12 189.154 99.12C191.474 99.12 193.154 98.04 193.154 96C193.154 94 191.474 92.92 189.154 92.92C186.794 92.92 185.154 94 185.154 96ZM198.194 96C198.194 100.24 194.434 103.12 189.154 103.12C183.874 103.12 180.114 100.24 180.114 96C180.114 91.84 183.874 88.92 189.154 88.92C194.434 88.92 198.194 91.84 198.194 96ZM188.834 105.12V111.6H208.634V115.8H183.554V105.12H188.834ZM207.314 90.84H212.194V95.2H207.314V107.16H202.034V79.6H207.314V90.84ZM231.75 84.5625V113H225.891V84.5625H231.75ZM248.781 84.5625L237.512 98.6055L231.008 105.598L229.953 100.051L234.348 94.0352L241.594 84.5625H248.781ZM242.121 113L233.742 99.8555L238.078 96.2227L249.055 113H242.121ZM264.035 84.5625V113H258.195V84.5625H264.035ZM272.785 84.5625V89.1523H249.582V84.5625H272.785ZM280.949 84.5625L286.301 94.4844L291.652 84.5625H298.352L290.09 98.6641L298.566 113H291.809L286.301 102.883L280.793 113H273.996L282.492 98.6641L274.211 84.5625H280.949Z" fill="white"/>
</svg>
