<svg width="400" height="200" viewBox="0 0 400 200" fill="none" xmlns="http://www.w3.org/2000/svg">
<rect width="400" height="200" fill="#0078C2"/>
<path d="M127.32 82.92L127.36 87.04H105.16V82.92H113.6V79.36H118.88V82.92H127.32ZM112.08 94.8C112.08 96.68 113.68 97.56 116.28 97.56C118.84 97.56 120.48 96.68 120.48 94.8C120.48 92.96 118.84 92.04 116.28 92.04C113.68 92.04 112.08 92.96 112.08 94.8ZM125.48 94.8C125.48 98.84 121.8 101.44 116.28 101.44C110.72 101.44 107.04 98.84 107.04 94.8C107.04 90.76 110.72 88.2 116.28 88.2C121.8 88.2 125.48 90.76 125.48 94.8ZM116 107.56V111.88H130.16V107.56H116ZM110.8 116V103.4H135.32V116H110.8ZM130 79.64H135.32V101.84H130V79.64ZM148.237 83.68V102.92C151.117 102.84 154.277 102.6 157.797 101.96L158.237 106.4C153.437 107.28 149.197 107.48 145.517 107.48H142.957V83.68H148.237ZM168.037 79.56H173.077V116.4H168.037V98.04H164.717V114.68H159.797V80.24H164.717V93.76H168.037V79.56ZM185.034 96.96V103.64C190.314 103.6 194.674 103.32 199.474 102.48L199.954 106.76C194.434 107.76 189.354 108 182.954 108H179.834V92.8H191.514V86.92H179.794V82.72H196.714V96.96H185.034ZM212.514 93.48V97.84H207.234V116.52H201.954V79.56H207.234V93.48H212.514ZM244.872 89.44H250.592V79.6H255.872V101.84H250.592V93.68H244.872V89.44ZM247.192 96.64L244.792 100.68C240.672 99.6 237.792 97.32 236.112 94.4C234.472 97.76 231.592 100.36 227.312 101.6L224.832 97.52C230.672 95.84 233.232 91.68 233.312 87.56H226.112V83.4H233.312V79.48H238.592V83.4H245.872V87.56H238.592C238.672 91.36 241.312 95.08 247.192 96.64ZM243.432 112.4C248.232 112.4 250.752 111.48 250.752 109.48C250.752 107.48 248.232 106.52 243.432 106.52C238.552 106.52 236.072 107.48 236.072 109.48C236.072 111.48 238.552 112.4 243.432 112.4ZM243.432 102.48C251.232 102.48 256.032 105.04 256.032 109.48C256.032 113.88 251.232 116.44 243.432 116.44C235.592 116.44 230.792 113.88 230.792 109.48C230.792 105.04 235.592 102.48 243.432 102.48ZM264.948 97.16L263.268 93.16C271.068 92.56 274.748 90 275.428 87.24H265.068V83.16H275.828V79.72H281.108V83.16H291.988V87.24H281.548C282.268 90 285.908 92.56 293.748 93.16L292.068 97.16C285.348 96.6 280.788 94.52 278.508 91.44C276.228 94.52 271.668 96.6 264.948 97.16ZM270.988 105.52V111.6H291.508V115.8H265.708V105.52H270.988ZM261.828 98.64H295.228V102.8H281.628V108.68H276.348V102.8H261.828V98.64Z" fill="white"/>
</svg>
