<svg width="400" height="200" viewBox="0 0 400 200" fill="none" xmlns="http://www.w3.org/2000/svg">
<rect width="400" height="200" fill="#317039"/>
<path d="M112.92 86H117.2V87.36C117.2 93.8 113.92 99.6 106.84 101.64L104.36 97.48C110.32 95.8 112.92 91.56 112.92 87.36V86ZM113.92 86H118.24V87.36C118.24 91.16 120.88 95.04 126.84 96.6L124.44 100.72C117.32 98.84 113.92 93.44 113.92 87.36V86ZM105.64 83.36H125.52V87.52H105.64V83.36ZM112.92 79.4H118.24V85H112.92V79.4ZM124.48 89.4H131.56V93.68H124.48V89.4ZM130.28 79.52H135.6V101.88H130.28V79.52ZM123.04 102.52C130.88 102.52 135.72 105.08 135.72 109.52C135.72 113.96 130.88 116.56 123.04 116.56C115.2 116.56 110.36 113.96 110.36 109.52C110.36 105.08 115.2 102.52 123.04 102.52ZM123.04 106.56C118.2 106.56 115.68 107.52 115.68 109.52C115.68 111.52 118.2 112.52 123.04 112.52C127.92 112.52 130.44 111.52 130.44 109.52C130.44 107.52 127.92 106.56 123.04 106.56ZM141.437 107.88H174.957V112.24H141.437V107.88ZM155.357 99.64H160.637V109.04H155.357V99.64ZM155.157 81.56H159.797V84.24C159.797 92.12 154.077 99.08 144.397 100.84L142.197 96.4C150.637 95.04 155.157 89.36 155.157 84.24V81.56ZM156.197 81.56H160.837V84.24C160.837 89.48 165.357 95.04 173.837 96.4L171.637 100.84C161.917 99.04 156.197 92.24 156.197 84.24V81.56ZM203.874 79.52H209.194V106.76H203.874V79.52ZM194.914 83.64H205.674V87.8H194.914V83.64ZM184.714 111.68H210.034V115.92H184.714V111.68ZM184.714 104.32H190.074V113.84H184.714V104.32ZM180.234 81.88H185.514V99.28H180.234V81.88ZM180.234 97.68H183.194C188.554 97.68 193.314 97.44 198.594 96.52L199.074 100.8C193.634 101.8 188.754 102 183.194 102H180.234V97.68ZM194.914 90.52H205.674V94.72H194.914V90.52ZM228.872 96.6H254.912V100.84H228.872V96.6ZM224.992 107.76H258.512V112.12H224.992V107.76ZM228.872 82.56H254.632V86.88H234.152V98.36H228.872V82.56ZM287.188 79.52H292.548V101.48H287.188V79.52ZM263.668 95.96H266.908C274.108 95.96 278.788 95.84 284.148 94.96L284.748 99.16C279.228 100.12 274.308 100.28 266.908 100.28H263.668V95.96ZM263.628 81.64H280.668V92.8H268.908V98.52H263.668V88.84H275.428V85.84H263.628V81.64ZM267.908 103.16H292.548V116.16H267.908V103.16ZM287.308 107.32H273.108V111.96H287.308V107.32Z" fill="white"/>
</svg>
