<svg width="400" height="200" viewBox="0 0 400 200" fill="none" xmlns="http://www.w3.org/2000/svg">
<rect width="400" height="200" fill="#F18A01"/>
<path d="M106.48 82.52H123.08V98.08H106.48V82.52ZM119.84 85.16H109.72V95.4H119.84V85.16ZM129.72 79.96H133.04V100.84H129.72V79.96ZM132.12 88.8H138.4V91.56H132.12V88.8ZM110.32 102.6H133.04V115.64H110.32V102.6ZM129.8 105.24H113.56V112.96H129.8V105.24ZM168.197 79.96H171.517V106.88H168.197V79.96ZM142.837 82.88H161.877V85.6H142.837V82.88ZM142.237 101.44L141.877 98.6C147.797 98.6 156.237 98.52 162.997 97.72L163.197 100.2C156.237 101.32 148.117 101.44 142.237 101.44ZM146.437 85.2H149.637V99.08H146.437V85.2ZM155.077 85.2H158.277V99.08H155.077V85.2ZM162.197 86.8H169.957V89.52H162.197V86.8ZM162.197 93.72H169.957V96.44H162.197V93.72ZM148.397 112.6H172.477V115.32H148.397V112.6ZM148.397 104.68H151.717V114.32H148.397V104.68ZM203.314 80H206.634V107.12H203.314V80ZM205.594 91.84H211.994V94.64H205.594V91.84ZM178.674 84.36H200.034V87.04H178.674V84.36ZM189.354 89.04C194.474 89.04 197.994 91.72 197.994 95.8C197.994 99.84 194.474 102.52 189.354 102.52C184.194 102.52 180.674 99.84 180.674 95.8C180.674 91.72 184.194 89.04 189.354 89.04ZM189.354 91.64C186.074 91.64 183.834 93.28 183.834 95.8C183.834 98.28 186.074 99.92 189.354 99.92C192.594 99.92 194.834 98.28 194.834 95.8C194.834 93.28 192.594 91.64 189.354 91.64ZM187.674 79.96H190.994V85.76H187.674V79.96ZM184.114 112.6H208.274V115.32H184.114V112.6ZM184.114 104.96H187.434V113.76H184.114V104.96ZM229.172 84.5625V113H226.77V84.5625H229.172ZM246.75 84.5625L234.484 97.5898L228.312 103.664L228.078 100.988L233.039 95.832L243.742 84.5625H246.75ZM244.758 113L232.785 98.3906L234.23 96.457L247.668 113H244.758ZM261.574 84.5625V113H259.191V84.5625H261.574ZM271.32 84.5625V86.6328H249.465V84.5625H271.32ZM276.574 84.5625L284.582 96.5742L292.609 84.5625H295.461L286.047 98.5664L295.754 113H292.883L284.582 100.598L276.281 113H273.43L283.137 98.5664L273.723 84.5625H276.574Z" fill="white"/>
</svg>
