<svg width="253" height="39" viewBox="0 0 253 39" fill="none" xmlns="http://www.w3.org/2000/svg">
<path d="M1.19209e-07 38V4H7.5V31.2H19.7V38H1.19209e-07ZM31.2629 24.35H41.1129C41.1129 24.35 40.7629 20.25 36.2129 20.25C31.5129 20.25 31.2629 24.35 31.2629 24.35ZM48.3129 26.5C48.3129 26.95 48.2629 27.45 48.2629 27.9H31.1629C31.1629 30.45 32.9629 33.15 35.9129 33.15C38.5629 33.15 40.2129 31.4 40.2629 29.8H47.9129C46.6129 35.6 41.9129 38.5 36.0629 38.5C28.4629 38.5 23.2129 34 23.2129 27C23.2129 20.1 28.6629 15.45 36.0629 15.45C42.7629 15.45 48.3129 19.45 48.3129 26.5ZM62.5262 21.75V38H55.0762V21.75H51.0762V15.95H55.0762V7.55H62.5262V15.95H66.5262V21.75H62.5262ZM80.5578 0.499997L73.3578 15.45H69.2578L73.1578 0.499997H80.5578ZM104.482 22.65H97.132C96.882 20.65 95.032 20.1 93.582 20.1C92.132 20.1 90.582 20.85 90.582 22.15C90.582 25.25 104.832 22.1 104.832 31.4C104.832 36.6 100.382 38.5 93.982 38.5C87.432 38.5 82.482 36.05 82.082 29.8H89.532C89.532 33.1 92.482 33.3 94.132 33.3C95.832 33.3 97.282 32.65 97.282 31.45C97.282 26.8 83.032 30.45 83.032 22.45C83.032 17.95 86.482 15.45 93.782 15.45C99.582 15.45 103.832 17.6 104.482 22.65ZM129.326 22.8V38H121.826V4H129.326V19.2L140.076 4H149.676L136.626 21L150.176 38H140.076L129.326 22.8ZM164.036 32.8C168.036 32.8 169.136 29.85 169.136 27.05C169.136 24.3 167.936 21.35 164.036 21.35C160.086 21.35 158.886 24.3 158.886 27.05C158.886 29.85 159.986 32.8 164.036 32.8ZM164.036 15.5C170.886 15.5 176.586 20.1 176.586 27C176.586 34.05 171.036 38.45 164.036 38.45C156.986 38.45 151.436 34.05 151.436 27C151.436 20.1 157.136 15.5 164.036 15.5ZM193.798 21.5C190.998 21.5 188.848 24.35 188.848 27V38H181.348V15.95H188.848V18.65C189.998 17 191.898 15.45 194.648 15.45C195.298 15.45 196.298 15.65 196.898 15.95V22.75H196.798C196.048 21.85 194.948 21.5 193.798 21.5ZM217.641 27C217.641 24.1 215.391 21.5 212.391 21.5C209.391 21.5 207.141 24.1 207.141 27C207.141 29.9 209.391 32.5 212.391 32.5C215.391 32.5 217.641 29.9 217.641 27ZM225.141 16V38H217.641V35.35C216.141 37.6 212.891 38.5 210.091 38.5C203.841 38.5 199.141 33.1 199.141 27C199.141 20.9 203.841 15.45 210.091 15.45C212.891 15.45 215.691 16.25 217.641 18.65V16H225.141ZM230.752 8.4C230.752 5.95 232.702 4 235.152 4C237.552 4 239.552 5.95 239.552 8.4C239.552 10.8 237.552 12.8 235.152 12.8C232.702 12.8 230.752 10.8 230.752 8.4ZM238.902 38H231.402V15.95H238.902V38ZM252.666 38H245.166V0.499997H252.666V38Z" fill="#00256C"/>
</svg>
