<svg width="25" height="26" viewBox="0 0 25 26" fill="none" xmlns="http://www.w3.org/2000/svg">
<rect x="1" y="1" width="23" height="24" rx="3" stroke="white" stroke-width="2"/>
<line x1="0.890625" y1="7.35742" x2="24.1049" y2="7.35742" stroke="white" stroke-width="2"/>
<rect x="3.70312" y="3.85156" width="2.14286" height="1.14082" rx="0.570408" fill="white"/>
<rect x="6.91797" y="3.85156" width="2.14286" height="1.14082" rx="0.570408" fill="white"/>
<rect x="10.1309" y="3.85156" width="2.14286" height="1.14082" rx="0.570408" fill="white"/>
<path d="M7.633 17.677C7.633 17.873 7.584 18.055 7.5 18.23C7.409 18.412 7.29 18.559 7.143 18.671C6.849 18.895 6.464 19 5.981 19H4.525V14.24H5.813C6.506 14.24 6.961 14.457 7.171 14.884C7.241 15.038 7.283 15.199 7.283 15.353C7.283 15.514 7.269 15.64 7.241 15.731C7.213 15.822 7.178 15.906 7.129 15.99C7.024 16.179 6.884 16.305 6.723 16.375C6.996 16.452 7.22 16.606 7.388 16.83C7.549 17.054 7.633 17.341 7.633 17.677ZM6.793 15.43C6.793 14.954 6.464 14.709 5.813 14.709H5.015V16.193H5.953C6.205 16.193 6.408 16.13 6.562 16.004C6.716 15.878 6.793 15.689 6.793 15.43ZM7.143 17.579C7.143 17.439 7.115 17.32 7.059 17.208C7.003 17.103 6.933 17.012 6.849 16.935C6.66 16.767 6.443 16.683 6.198 16.683H5.015V18.531H6.121C6.415 18.531 6.66 18.447 6.849 18.272C7.045 18.097 7.143 17.866 7.143 17.579ZM8.78844 18.51H10.4894V19H8.78844H8.54344H8.29844V14.24H8.78844V18.51ZM15.0071 16.606C15.0071 16.074 14.8111 15.612 14.4331 15.227C14.0481 14.849 13.5861 14.653 13.0471 14.653C12.5081 14.653 12.0461 14.849 11.6681 15.227C11.2831 15.612 11.0941 16.074 11.0941 16.606C11.0941 17.152 11.2831 17.614 11.6681 17.992C12.0461 18.377 12.5081 18.566 13.0471 18.566C13.5861 18.566 14.0481 18.377 14.4331 17.992C14.8111 17.614 15.0071 17.152 15.0071 16.606ZM15.4971 16.606C15.4971 16.942 15.4271 17.264 15.3011 17.558C15.1751 17.859 15.0001 18.118 14.7761 18.342C14.5521 18.566 14.2931 18.741 13.9991 18.867C13.6981 18.993 13.3831 19.056 13.0471 19.056C12.7111 19.056 12.3891 18.993 12.0951 18.867C11.8011 18.741 11.5421 18.566 11.3181 18.342C11.0941 18.118 10.9191 17.859 10.7931 17.558C10.6671 17.264 10.6041 16.942 10.6041 16.606C10.6041 16.27 10.6671 15.955 10.7931 15.654C10.9191 15.36 11.0941 15.101 11.3181 14.877C11.5421 14.66 11.8011 14.485 12.0951 14.359C12.3891 14.233 12.7111 14.163 13.0471 14.163C13.3831 14.163 13.6981 14.233 13.9991 14.359C14.2931 14.485 14.5521 14.66 14.7761 14.877C15.0001 15.101 15.1751 15.36 15.3011 15.654C15.4271 15.955 15.4971 16.27 15.4971 16.606ZM21.0345 16.774L20.9855 17.068C20.8805 17.649 20.5935 18.125 20.1315 18.503C19.6695 18.874 19.1515 19.056 18.5775 19.056C18.2415 19.056 17.9195 18.993 17.6255 18.867C17.3245 18.741 17.0655 18.566 16.8415 18.342C16.6175 18.118 16.4425 17.859 16.3165 17.558C16.1905 17.264 16.1275 16.942 16.1275 16.606C16.1275 16.27 16.1905 15.948 16.3165 15.647C16.4425 15.353 16.6175 15.094 16.8415 14.87C17.0655 14.646 17.3245 14.471 17.6255 14.345C17.9195 14.219 18.2205 14.149 18.5285 14.149C19.0955 14.149 19.5995 14.317 20.0335 14.639C20.4675 14.961 20.7685 15.381 20.9295 15.906H20.4115C20.2575 15.521 20.0195 15.22 19.6835 14.989C19.3545 14.758 18.9835 14.639 18.5775 14.639C18.0315 14.639 17.5695 14.835 17.1915 15.213C16.8065 15.598 16.6175 16.06 16.6175 16.599C16.6175 17.138 16.8065 17.607 17.1845 17.992C17.5695 18.377 18.0315 18.566 18.5775 18.566C19.0045 18.566 19.3965 18.447 19.7465 18.195C20.0965 17.95 20.3415 17.614 20.4885 17.201H18.5565V16.774H21.0345Z" fill="white"/>
</svg>
