<svg width="30" height="25" viewBox="0 0 30 25" fill="none" xmlns="http://www.w3.org/2000/svg">
<path d="M26.8945 6.65625C26.8945 6.94922 26.8945 7.18359 26.8945 7.47656C26.8945 15.6211 20.7422 24.9375 9.43359 24.9375C5.91797 24.9375 2.69531 23.9414 0 22.1836C0.46875 22.2422 0.9375 22.3008 1.46484 22.3008C4.33594 22.3008 6.97266 21.3047 9.08203 19.6641C6.38672 19.6055 4.10156 17.8477 3.33984 15.3867C3.75 15.4453 4.10156 15.5039 4.51172 15.5039C5.03906 15.5039 5.625 15.3867 6.09375 15.2695C3.28125 14.6836 1.17188 12.2227 1.17188 9.23438V9.17578C1.99219 9.64453 2.98828 9.87891 3.98438 9.9375C2.28516 8.82422 1.23047 6.94922 1.23047 4.83984C1.23047 3.66797 1.52344 2.61328 2.05078 1.73438C5.09766 5.42578 9.66797 7.88672 14.7656 8.17969C14.6484 7.71094 14.5898 7.24219 14.5898 6.77344C14.5898 3.375 17.3438 0.621094 20.7422 0.621094C22.5 0.621094 24.082 1.32422 25.2539 2.55469C26.6016 2.26172 27.9492 1.73438 29.1211 1.03125C28.6523 2.49609 27.7148 3.66797 26.4258 4.42969C27.6562 4.3125 28.8867 3.96094 29.9414 3.49219C29.1211 4.72266 28.0664 5.77734 26.8945 6.65625Z" fill="white"/>
</svg>
