<svg width="33" height="23" viewBox="0 0 33 23" fill="none" xmlns="http://www.w3.org/2000/svg">
<path d="M32.293 4.07422C32.9961 6.53516 32.9961 11.8086 32.9961 11.8086C32.9961 11.8086 32.9961 17.0234 32.293 19.543C31.9414 20.9492 30.8281 22.0039 29.4805 22.3555C26.9609 23 17 23 17 23C17 23 6.98047 23 4.46094 22.3555C3.11328 22.0039 2 20.9492 1.64844 19.543C0.945312 17.0234 0.945312 11.8086 0.945312 11.8086C0.945312 11.8086 0.945312 6.53516 1.64844 4.07422C2 2.66797 3.11328 1.55469 4.46094 1.20312C6.98047 0.5 17 0.5 17 0.5C17 0.5 26.9609 0.5 29.4805 1.20312C30.8281 1.55469 31.9414 2.66797 32.293 4.07422ZM13.7188 16.5547L22.0391 11.8086L13.7188 7.0625V16.5547Z" fill="white"/>
</svg>
