<svg width="130" height="73" viewBox="0 0 130 73" fill="none" xmlns="http://www.w3.org/2000/svg">
<g filter="url(#filter0_d_2_445)">
<rect x="6" y="6" width="110" height="52.7778" rx="9" fill="#00256C"/>
</g>
<path d="M27.536 31.6191H30.464V26.6751H27.536C27.656 27.4431 27.728 28.2351 27.728 29.1471C27.728 30.0591 27.656 30.8511 27.536 31.6191ZM23.12 34.8351C24.848 34.8351 25.928 32.6511 25.928 29.1471C25.928 25.6671 24.848 23.4831 23.12 23.4831C21.416 23.4831 20.312 25.6671 20.312 29.1471C20.312 32.6511 21.416 34.8351 23.12 34.8351ZM30.464 25.0671V20.3391H32.336V40.3311H30.464V33.2511H27.128C26.36 35.4111 24.992 36.6591 23.12 36.6591C20.336 36.6591 18.536 33.7791 18.536 29.1471C18.536 24.5391 20.336 21.6591 23.12 21.6591C24.992 21.6591 26.384 22.9071 27.128 25.0671H30.464ZM34.688 19.8591H36.56V41.3871H34.688V19.8591ZM42.9661 23.9151V34.0431H47.4781V23.9151H42.9661ZM41.1181 35.6031V22.3551H49.3021V35.6031H41.1181ZM56.7661 19.8591H58.6381V41.3631H56.7661V29.9871H53.8621V40.3071H52.0141V20.3391H53.8621V28.3791H56.7661V19.8591ZM68.7403 34.9551C70.7083 34.9551 72.1243 33.5631 72.1243 31.6431C72.1243 29.6991 70.7083 28.3071 68.7403 28.3071C66.7963 28.3071 65.3803 29.6991 65.3803 31.6431C65.3803 33.5631 66.7963 34.9551 68.7403 34.9551ZM68.7403 26.6751C71.8123 26.6751 73.9963 28.7391 73.9963 31.6431C73.9963 34.5711 71.8123 36.5871 68.7403 36.5871C65.7163 36.5871 63.5323 34.5711 63.5323 31.6431C63.5323 28.7391 65.7163 26.6751 68.7403 26.6751ZM69.7003 20.1231V23.3151H75.0043V24.8991H62.3083V23.3151H67.7323V20.1231H69.7003ZM82.5403 28.7151V30.3711H79.0123V41.3871H77.0443V19.8831H79.0123V28.7151H82.5403ZM85.7784 22.1871H95.8584C95.8584 28.4031 93.0024 33.8751 85.8504 37.3791L84.7944 35.7711C90.5784 33.0111 93.4584 28.8831 93.8664 23.7711H85.7784V22.1871ZM100.202 19.8591H102.17V41.3871H100.202V19.8591Z" fill="white"/>
<defs>
<filter id="filter0_d_2_445" x="0" y="0" width="130" height="72.7778" filterUnits="userSpaceOnUse" color-interpolation-filters="sRGB">
<feFlood flood-opacity="0" result="BackgroundImageFix"/>
<feColorMatrix in="SourceAlpha" type="matrix" values="0 0 0 0 0 0 0 0 0 0 0 0 0 0 0 0 0 0 127 0" result="hardAlpha"/>
<feOffset dx="4" dy="4"/>
<feGaussianBlur stdDeviation="5"/>
<feComposite in2="hardAlpha" operator="out"/>
<feColorMatrix type="matrix" values="0 0 0 0 0 0 0 0 0 0 0 0 0 0 0 0 0 0 0.5 0"/>
<feBlend mode="normal" in2="BackgroundImageFix" result="effect1_dropShadow_2_445"/>
<feBlend mode="normal" in="SourceGraphic" in2="effect1_dropShadow_2_445" result="shape"/>
</filter>
</defs>
</svg>
