<svg width="130" height="74" viewBox="0 0 130 74" fill="none" xmlns="http://www.w3.org/2000/svg">
<g filter="url(#filter0_d_2_442)">
<rect x="6" y="6.94446" width="110" height="52.7778" rx="9" fill="#00256C"/>
</g>
<path d="M27.536 33.6191H30.464V28.6751H27.536C27.656 29.4431 27.728 30.2351 27.728 31.1471C27.728 32.0591 27.656 32.8511 27.536 33.6191ZM23.12 36.8351C24.848 36.8351 25.928 34.6511 25.928 31.1471C25.928 27.6671 24.848 25.4831 23.12 25.4831C21.416 25.4831 20.312 27.6671 20.312 31.1471C20.312 34.6511 21.416 36.8351 23.12 36.8351ZM30.464 27.0671V22.3391H32.336V42.3311H30.464V35.2511H27.128C26.36 37.4111 24.992 38.6591 23.12 38.6591C20.336 38.6591 18.536 35.7791 18.536 31.1471C18.536 26.5391 20.336 23.6591 23.12 23.6591C24.992 23.6591 26.384 24.9071 27.128 27.0671H30.464ZM34.688 21.8591H36.56V43.3871H34.688V21.8591ZM42.6781 28.2431C42.6781 30.2591 44.2141 31.6751 46.3741 31.6751C48.5101 31.6751 50.0701 30.2591 50.0701 28.2431C50.0701 26.2031 48.5101 24.8111 46.3741 24.8111C44.2141 24.8111 42.6781 26.2031 42.6781 28.2431ZM51.9901 28.2431C51.9901 31.2431 49.6141 33.3311 46.3741 33.3311C43.1101 33.3311 40.7581 31.2431 40.7581 28.2431C40.7581 25.2191 43.1101 23.1551 46.3741 23.1551C49.6141 23.1551 51.9901 25.2191 51.9901 28.2431ZM43.0621 37.2671V35.6591H57.0541V43.3871H55.0861V37.2671H43.0621ZM60.1741 26.7791H57.0541V29.7551H60.1741V31.3631H57.0541V34.6511H55.0861V21.8831H57.0541V25.1471H60.1741V26.7791ZM68.7403 36.9551C70.7083 36.9551 72.1243 35.5631 72.1243 33.6431C72.1243 31.6991 70.7083 30.3071 68.7403 30.3071C66.7963 30.3071 65.3803 31.6991 65.3803 33.6431C65.3803 35.5631 66.7963 36.9551 68.7403 36.9551ZM68.7403 28.6751C71.8123 28.6751 73.9963 30.7391 73.9963 33.6431C73.9963 36.5711 71.8123 38.5871 68.7403 38.5871C65.7163 38.5871 63.5323 36.5711 63.5323 33.6431C63.5323 30.7391 65.7163 28.6751 68.7403 28.6751ZM69.7003 22.1231V25.3151H75.0043V26.8991H62.3083V25.3151H67.7323V22.1231H69.7003ZM82.5403 30.7151V32.3711H79.0123V43.3871H77.0443V21.8831H79.0123V30.7151H82.5403ZM85.7784 24.1871H95.8584C95.8584 30.4031 93.0024 35.8751 85.8504 39.3791L84.7944 37.7711C90.5784 35.0111 93.4584 30.8831 93.8664 25.7711H85.7784V24.1871ZM100.202 21.8591H102.17V43.3871H100.202V21.8591Z" fill="white"/>
<defs>
<filter id="filter0_d_2_442" x="0" y="0.944458" width="130" height="72.7778" filterUnits="userSpaceOnUse" color-interpolation-filters="sRGB">
<feFlood flood-opacity="0" result="BackgroundImageFix"/>
<feColorMatrix in="SourceAlpha" type="matrix" values="0 0 0 0 0 0 0 0 0 0 0 0 0 0 0 0 0 0 127 0" result="hardAlpha"/>
<feOffset dx="4" dy="4"/>
<feGaussianBlur stdDeviation="5"/>
<feComposite in2="hardAlpha" operator="out"/>
<feColorMatrix type="matrix" values="0 0 0 0 0 0 0 0 0 0 0 0 0 0 0 0 0 0 0.5 0"/>
<feBlend mode="normal" in2="BackgroundImageFix" result="effect1_dropShadow_2_442"/>
<feBlend mode="normal" in="SourceGraphic" in2="effect1_dropShadow_2_442" result="shape"/>
</filter>
</defs>
</svg>
