<svg width="130" height="55" viewBox="0 0 130 55" fill="none" xmlns="http://www.w3.org/2000/svg">
<g filter="url(#filter0_d_2_452)">
<path d="M6 15C6 10.0294 10.0294 6 15 6H107C111.971 6 116 10.0294 116 15V32C116 36.9706 111.971 41 107 41H15C10.0294 41 6 36.9706 6 32V15Z" fill="#00256C"/>
</g>
<path d="M36.5 20.38L35.82 21.7C33.04 21.22 30.34 19.66 29.18 17.5C28.06 19.68 25.36 21.22 22.56 21.7L21.9 20.38C25.16 19.9 28.32 17.74 28.32 15.18V14.18H30.04V15.18C30.04 17.68 33.24 19.9 36.5 20.38ZM37.28 23.64L37.3 25H29.96V31.5H28.32V25H21.08V23.64H37.28ZM49.0384 18.2H52.5784V13.56H54.2384V24.24H52.5784V19.54H49.0384V18.2ZM50.0384 22.28L49.2184 23.56C47.2184 22.84 45.6784 21.36 44.8984 19.52C44.1384 21.6 42.4784 23.28 40.3784 24.08L39.5184 22.78C42.1984 21.8 44.0384 19.38 44.0384 16.8V16.18H40.0384V14.86H49.6184V16.18H45.6784V16.8C45.6784 19.1 47.4384 21.36 50.0384 22.28ZM48.3184 30.2C51.0184 30.2 52.6584 29.44 52.6584 28.14C52.6584 26.84 51.0184 26.06 48.3184 26.06C45.6184 26.06 43.9784 26.84 43.9784 28.14C43.9784 29.44 45.6184 30.2 48.3184 30.2ZM48.3184 24.8C51.9984 24.8 54.2984 26.02 54.2984 28.14C54.2984 30.26 51.9984 31.48 48.3184 31.48C44.6384 31.48 42.3384 30.26 42.3384 28.14C42.3384 26.02 44.6384 24.8 48.3184 24.8ZM64.4629 15.7812L58.5352 31.2207H56.9824L62.9199 15.7812H64.4629ZM73.5586 22.4V19.12H68.4786V22.4H73.5586ZM75.1586 14.84V23.72H66.8586V14.84H68.4786V17.84H73.5586V14.84H75.1586ZM70.5186 25.46V29.74H80.8386V31.08H68.8786V25.46H70.5186ZM80.0386 18.98H82.6786V20.36H80.0386V26.72H78.3986V13.56H80.0386V18.98ZM95.177 15.3V16.52H84.877V15.3H89.217V13.48H90.857V15.3H95.177ZM87.397 20.02C87.397 21.02 88.417 21.62 90.037 21.62C91.617 21.62 92.657 21.02 92.657 20.02C92.657 19.06 91.617 18.44 90.037 18.44C88.417 18.44 87.397 19.06 87.397 20.02ZM95.717 23.56L95.837 24.74C92.037 25.44 87.737 25.5 84.617 25.52L84.437 24.2C85.837 24.2 87.497 24.18 89.217 24.12V22.76C87.157 22.56 85.837 21.56 85.837 20.02C85.837 18.32 87.517 17.28 90.037 17.28C92.537 17.28 94.217 18.32 94.217 20.02C94.217 21.56 92.917 22.54 90.857 22.76V24.04C92.497 23.96 94.177 23.82 95.717 23.56ZM88.717 26.64V29.74H99.057V31.08H87.077V26.64H88.717ZM98.417 19.8H101.037V21.16H98.417V27.58H96.777V13.54H98.417V19.8Z" fill="white"/>
<defs>
<filter id="filter0_d_2_452" x="0" y="0" width="130" height="55" filterUnits="userSpaceOnUse" color-interpolation-filters="sRGB">
<feFlood flood-opacity="0" result="BackgroundImageFix"/>
<feColorMatrix in="SourceAlpha" type="matrix" values="0 0 0 0 0 0 0 0 0 0 0 0 0 0 0 0 0 0 127 0" result="hardAlpha"/>
<feOffset dx="4" dy="4"/>
<feGaussianBlur stdDeviation="5"/>
<feComposite in2="hardAlpha" operator="out"/>
<feColorMatrix type="matrix" values="0 0 0 0 0 0 0 0 0 0 0 0 0 0 0 0 0 0 0.5 0"/>
<feBlend mode="normal" in2="BackgroundImageFix" result="effect1_dropShadow_2_452"/>
<feBlend mode="normal" in="SourceGraphic" in2="effect1_dropShadow_2_452" result="shape"/>
</filter>
</defs>
</svg>
