<?xml version="1.0" encoding="utf-8"?>
<!-- Generator: Adobe Illustrator 24.0.2, SVG Export Plug-In . SVG Version: 6.00 Build 0)  -->
<svg version="1.1" id="Layer_1" xmlns="http://www.w3.org/2000/svg" xmlns:xlink="http://www.w3.org/1999/xlink" x="0px" y="0px"
	 viewBox="0 0 595.28 841.89" style="enable-background:new 0 0 595.28 841.89;" xml:space="preserve">
<style type="text/css">
	.st0{fill:#F1D52C;}
	.st1{fill:#13130A;}
	.st2{fill:#F3D42C;}
</style>
<g>
	<path class="st0" d="M375.51,472.69c0,14.26-11.56,25.83-25.83,25.83H245.31c-14.26,0-25.83-11.56-25.83-25.83V368.32
		c0-14.26,11.56-25.83,25.83-25.83h104.37c14.26,0,25.83,11.56,25.83,25.83V472.69z"/>
	<path class="st1" d="M297.5,369.89c-29.27,0-53,22.05-53,49.25c0,16.07,8.28,30.33,21.09,39.32v21.61c0,0.31,0.17,0.58,0.44,0.72
		c0.12,0.06,0.25,0.09,0.37,0.09c0.17,0,0.33-0.05,0.47-0.15l18.97-13.55c3.75,0.78,7.65,1.2,11.65,1.2c29.27,0,53-22.05,53-49.25
		C350.49,391.94,326.77,369.89,297.5,369.89z"/>
	<g>
		<path class="st2" d="M330.58,413.44c-1.8-1.95-4.46-2.94-7.91-2.94c-1.91,0-3.66,0.42-5.19,1.25c-1.15,0.62-2.14,1.36-2.97,2.21
			v-15.94h-7.5v42.25h7.44v-15.78c0-1.31,0.18-2.49,0.53-3.52c0.35-1.02,0.83-1.9,1.43-2.6c0.59-0.7,1.29-1.24,2.08-1.61
			c0.79-0.37,1.63-0.56,2.52-0.56c1.53,0,2.73,0.42,3.56,1.24c0.83,0.82,1.25,2.35,1.25,4.55v18.28h7.44v-17.98
			C333.28,418.36,332.37,415.38,330.58,413.44z"/>
		<path class="st2" d="M281.68,406.8c5.22,0,9.68,3.38,11.46,8.15h8c-2.02-9.22-9.96-16.11-19.46-16.11
			c-11.02,0-19.96,9.27-19.96,20.71c0,11.44,8.94,20.71,19.96,20.71c9.5,0,17.44-6.89,19.46-16.11h-8
			c-1.78,4.77-6.24,8.15-11.46,8.15c-6.79,0-12.29-5.71-12.29-12.76C269.39,412.51,274.89,406.8,281.68,406.8z"/>
	</g>
</g>
</svg>
