<svg width="125" height="55" viewBox="0 0 125 55" fill="none" xmlns="http://www.w3.org/2000/svg">
<g filter="url(#filter0_d_3_464)">
<rect x="6" y="6" width="105" height="35" rx="9" fill="#00256C"/>
</g>
<path d="M21.56 21L20.98 19.7C24.14 19.34 27.08 17.72 27.12 15.68H21.54V14.34H34.82V15.68H29.24C29.28 17.72 32.18 19.36 35.38 19.7L34.8 21C31.86 20.62 29.16 19.3 28.18 17.32C27.2 19.32 24.5 20.62 21.56 21ZM21.86 26.68V25.36H34.28V31.48H32.64V26.68H21.86ZM20.06 22.18H36.34V23.52H20.06V22.18ZM44.8184 15.1V18.32C44.8184 21.6 46.9584 24.9 49.6184 26.1L48.6384 27.42C46.5984 26.42 44.8784 24.3 44.0184 21.74C43.1984 24.44 41.4784 26.68 39.3784 27.76L38.3784 26.42C41.0184 25.16 43.1984 21.72 43.1984 18.32V15.1H44.8184ZM51.4984 13.54H53.1384V31.52H51.4984V13.54ZM78.0578 22.42V23.76H70.7378V31.5H69.0778V23.76H61.8378V22.42H73.7378C74.2978 19.84 74.2978 17.94 74.2978 16.26V16.02H63.8578V14.7H75.8978V16.26C75.8978 17.94 75.8978 19.84 75.3978 22.42H78.0578ZM93.2963 13.56H94.9363V23.18H93.2963V13.56ZM83.3763 24.06H84.9963V26.26H93.3163V24.06H94.9363V31.24H83.3763V24.06ZM84.9963 27.54V29.92H93.3163V27.54H84.9963ZM85.2963 14.4C88.0163 14.4 89.9963 16.08 89.9963 18.52C89.9963 21 88.0163 22.66 85.2963 22.66C82.5963 22.66 80.6363 21 80.6363 18.52C80.6363 16.08 82.5963 14.4 85.2963 14.4ZM85.2963 15.76C83.5163 15.76 82.2363 16.9 82.2363 18.52C82.2363 20.16 83.5163 21.3 85.2963 21.3C87.1163 21.3 88.3963 20.16 88.3963 18.52C88.3963 16.9 87.1163 15.76 85.2963 15.76Z" fill="white"/>
<defs>
<filter id="filter0_d_3_464" x="0" y="0" width="125" height="55" filterUnits="userSpaceOnUse" color-interpolation-filters="sRGB">
<feFlood flood-opacity="0" result="BackgroundImageFix"/>
<feColorMatrix in="SourceAlpha" type="matrix" values="0 0 0 0 0 0 0 0 0 0 0 0 0 0 0 0 0 0 127 0" result="hardAlpha"/>
<feOffset dx="4" dy="4"/>
<feGaussianBlur stdDeviation="5"/>
<feComposite in2="hardAlpha" operator="out"/>
<feColorMatrix type="matrix" values="0 0 0 0 0 0 0 0 0 0 0 0 0 0 0 0 0 0 0.5 0"/>
<feBlend mode="normal" in2="BackgroundImageFix" result="effect1_dropShadow_3_464"/>
<feBlend mode="normal" in="SourceGraphic" in2="effect1_dropShadow_3_464" result="shape"/>
</filter>
</defs>
</svg>
