<svg width="125" height="55" viewBox="0 0 125 55" fill="none" xmlns="http://www.w3.org/2000/svg">
<g filter="url(#filter0_d_3_461)">
<rect x="6" y="6" width="105" height="35" rx="9" fill="#00256C"/>
</g>
<path d="M31.78 23.34H34.22V19.22H31.78C31.88 19.86 31.94 20.52 31.94 21.28C31.94 22.04 31.88 22.7 31.78 23.34ZM28.1 26.02C29.54 26.02 30.44 24.2 30.44 21.28C30.44 18.38 29.54 16.56 28.1 16.56C26.68 16.56 25.76 18.38 25.76 21.28C25.76 24.2 26.68 26.02 28.1 26.02ZM34.22 17.88V13.94H35.78V30.6H34.22V24.7H31.44C30.8 26.5 29.66 27.54 28.1 27.54C25.78 27.54 24.28 25.14 24.28 21.28C24.28 17.44 25.78 15.04 28.1 15.04C29.66 15.04 30.82 16.08 31.44 17.88H34.22ZM37.74 13.54H39.3V31.48H37.74V13.54ZM44.3984 18.86C44.3984 20.54 45.6784 21.72 47.4784 21.72C49.2584 21.72 50.5584 20.54 50.5584 18.86C50.5584 17.16 49.2584 16 47.4784 16C45.6784 16 44.3984 17.16 44.3984 18.86ZM52.1584 18.86C52.1584 21.36 50.1784 23.1 47.4784 23.1C44.7584 23.1 42.7984 21.36 42.7984 18.86C42.7984 16.34 44.7584 14.62 47.4784 14.62C50.1784 14.62 52.1584 16.34 52.1584 18.86ZM44.7184 26.38V25.04H56.3784V31.48H54.7384V26.38H44.7184ZM58.9784 17.64H56.3784V20.12H58.9784V21.46H56.3784V24.2H54.7384V13.56H56.3784V16.28H58.9784V17.64ZM62.3569 22.38L61.6569 21.08C64.2369 20.48 65.9769 18.84 65.9769 16.92V16.88H62.0169V15.58H65.9569V13.58H67.5969V15.58H71.5569V16.88H67.5969V16.92C67.5969 18.72 69.3369 20.26 71.8769 20.84L71.2169 22.12C69.1569 21.62 67.5969 20.54 66.8169 19.08C66.0569 20.66 64.4569 21.86 62.3569 22.38ZM72.6569 23.04L72.7769 24.26C71.0969 24.54 69.3369 24.72 67.6369 24.82V30.96H65.9969V24.92C64.2369 24.98 62.5369 25 61.0369 25L60.8169 23.62C64.2369 23.62 68.7369 23.6 72.6569 23.04ZM73.9369 13.56H75.5769V31.5H73.9369V13.56ZM94.7353 22.3L94.0353 23.66C91.2953 23.08 88.4753 21.22 87.3153 18.66C86.1553 21.22 83.3553 23.08 80.5953 23.66L79.9153 22.3C83.0553 21.74 86.4553 19.1 86.4553 16.12V14.74H88.1753V16.12C88.1753 19.1 91.5953 21.74 94.7353 22.3ZM88.1353 27.8H95.5353V29.14H79.2553V27.8H86.4953V23.44H88.1353V27.8Z" fill="white"/>
<defs>
<filter id="filter0_d_3_461" x="0" y="0" width="125" height="55" filterUnits="userSpaceOnUse" color-interpolation-filters="sRGB">
<feFlood flood-opacity="0" result="BackgroundImageFix"/>
<feColorMatrix in="SourceAlpha" type="matrix" values="0 0 0 0 0 0 0 0 0 0 0 0 0 0 0 0 0 0 127 0" result="hardAlpha"/>
<feOffset dx="4" dy="4"/>
<feGaussianBlur stdDeviation="5"/>
<feComposite in2="hardAlpha" operator="out"/>
<feColorMatrix type="matrix" values="0 0 0 0 0 0 0 0 0 0 0 0 0 0 0 0 0 0 0.5 0"/>
<feBlend mode="normal" in2="BackgroundImageFix" result="effect1_dropShadow_3_461"/>
<feBlend mode="normal" in="SourceGraphic" in2="effect1_dropShadow_3_461" result="shape"/>
</filter>
</defs>
</svg>
