<svg width="437" height="75" viewBox="0 0 437 75" fill="none" xmlns="http://www.w3.org/2000/svg">
<mask id="path-1-outside-1_0_3" maskUnits="userSpaceOnUse" x="-1" y="-1" width="439" height="77" fill="black">
<rect fill="white" x="-1" y="-1" width="439" height="77"/>
<path d="M0.806819 74V1.27273H9.61364V33.6591H48.392V1.27273H57.1989V74H48.392V41.4716H9.61364V74H0.806819ZM136.194 37.6364C136.194 45.3068 134.809 51.9356 132.039 57.5227C129.269 63.1098 125.469 67.4186 120.64 70.4489C115.81 73.4792 110.294 74.9943 104.092 74.9943C97.889 74.9943 92.3729 73.4792 87.5433 70.4489C82.7138 67.4186 78.9141 63.1098 76.1442 57.5227C73.3743 51.9356 71.9893 45.3068 71.9893 37.6364C71.9893 29.9659 73.3743 23.3371 76.1442 17.75C78.9141 12.1629 82.7138 7.85417 87.5433 4.82386C92.3729 1.79356 97.889 0.278406 104.092 0.278406C110.294 0.278406 115.81 1.79356 120.64 4.82386C125.469 7.85417 129.269 12.1629 132.039 17.75C134.809 23.3371 136.194 29.9659 136.194 37.6364ZM127.671 37.6364C127.671 31.339 126.618 26.0241 124.511 21.6918C122.427 17.3594 119.598 14.0805 116.023 11.8551C112.472 9.62973 108.495 8.51704 104.092 8.51704C99.6882 8.51704 95.6991 9.62973 92.1243 11.8551C88.5732 14.0805 85.7441 17.3594 83.6371 21.6918C81.5537 26.0241 80.5121 31.339 80.5121 37.6364C80.5121 43.9337 81.5537 49.2486 83.6371 53.581C85.7441 57.9134 88.5732 61.1922 92.1243 63.4176C95.6991 65.643 99.6882 66.7557 104.092 66.7557C108.495 66.7557 112.472 65.643 116.023 63.4176C119.598 61.1922 122.427 57.9134 124.511 53.581C126.618 49.2486 127.671 43.9337 127.671 37.6364ZM143.998 9.08523V1.27273H198.543V9.08523H175.674V74H166.867V9.08523H143.998ZM212.135 74V1.27273H236.709C242.414 1.27273 247.078 2.30255 250.7 4.36221C254.346 6.3982 257.045 9.15625 258.797 12.6364C260.549 16.1165 261.425 19.9991 261.425 24.2841C261.425 28.5691 260.549 32.4635 258.797 35.9673C257.069 39.4711 254.393 42.2647 250.771 44.348C247.149 46.4077 242.509 47.4375 236.851 47.4375H219.237V39.625H236.567C240.473 39.625 243.61 38.9503 245.977 37.6009C248.345 36.2514 250.061 34.4285 251.126 32.1321C252.215 29.812 252.76 27.196 252.76 24.2841C252.76 21.3722 252.215 18.768 251.126 16.4716C250.061 14.1752 248.333 12.3759 245.942 11.0739C243.551 9.7481 240.378 9.08523 236.425 9.08523H220.942V74H212.135ZM284.418 1.27273V74H275.612V1.27273H284.418ZM359.747 1.27273V74H351.224L311.593 16.8977H310.883V74H302.076V1.27273H310.599L350.372 58.517H351.082V1.27273H359.747ZM427.085 24C426.304 21.6089 425.274 19.4664 423.996 17.5724C422.741 15.6548 421.238 14.0213 419.486 12.6719C417.758 11.3224 415.793 10.2926 413.591 9.58238C411.389 8.87216 408.974 8.51704 406.347 8.51704C402.038 8.51704 398.12 9.62973 394.592 11.8551C391.065 14.0805 388.259 17.3594 386.176 21.6918C384.093 26.0241 383.051 31.339 383.051 37.6364C383.051 43.9337 384.105 49.2486 386.212 53.581C388.319 57.9134 391.171 61.1922 394.77 63.4176C398.368 65.643 402.417 66.7557 406.915 66.7557C411.081 66.7557 414.751 65.8679 417.923 64.0923C421.119 62.2931 423.605 59.7599 425.381 56.4929C427.18 53.2022 428.08 49.3314 428.08 44.8807L430.778 45.4489H408.903V37.6364H436.602V45.4489C436.602 51.4384 435.324 56.6468 432.767 61.0739C430.234 65.5009 426.73 68.9337 422.256 71.3722C417.805 73.7869 412.691 74.9943 406.915 74.9943C400.475 74.9943 394.817 73.4792 389.94 70.4489C385.087 67.4186 381.299 63.1098 378.577 57.5227C375.878 51.9356 374.528 45.3068 374.528 37.6364C374.528 31.8835 375.298 26.7107 376.837 22.1179C378.399 17.5014 380.601 13.5715 383.442 10.3281C386.283 7.08475 389.644 4.59896 393.527 2.87074C397.41 1.14252 401.683 0.278406 406.347 0.278406C410.182 0.278406 413.757 0.858425 417.071 2.01846C420.409 3.15483 423.38 4.77651 425.984 6.88352C428.612 8.96685 430.802 11.4645 432.554 14.3764C434.306 17.2647 435.513 20.4725 436.176 24H427.085Z"/>
</mask>
<path d="M0.806819 74V1.27273H9.61364V33.6591H48.392V1.27273H57.1989V74H48.392V41.4716H9.61364V74H0.806819ZM136.194 37.6364C136.194 45.3068 134.809 51.9356 132.039 57.5227C129.269 63.1098 125.469 67.4186 120.64 70.4489C115.81 73.4792 110.294 74.9943 104.092 74.9943C97.889 74.9943 92.3729 73.4792 87.5433 70.4489C82.7138 67.4186 78.9141 63.1098 76.1442 57.5227C73.3743 51.9356 71.9893 45.3068 71.9893 37.6364C71.9893 29.9659 73.3743 23.3371 76.1442 17.75C78.9141 12.1629 82.7138 7.85417 87.5433 4.82386C92.3729 1.79356 97.889 0.278406 104.092 0.278406C110.294 0.278406 115.81 1.79356 120.64 4.82386C125.469 7.85417 129.269 12.1629 132.039 17.75C134.809 23.3371 136.194 29.9659 136.194 37.6364ZM127.671 37.6364C127.671 31.339 126.618 26.0241 124.511 21.6918C122.427 17.3594 119.598 14.0805 116.023 11.8551C112.472 9.62973 108.495 8.51704 104.092 8.51704C99.6882 8.51704 95.6991 9.62973 92.1243 11.8551C88.5732 14.0805 85.7441 17.3594 83.6371 21.6918C81.5537 26.0241 80.5121 31.339 80.5121 37.6364C80.5121 43.9337 81.5537 49.2486 83.6371 53.581C85.7441 57.9134 88.5732 61.1922 92.1243 63.4176C95.6991 65.643 99.6882 66.7557 104.092 66.7557C108.495 66.7557 112.472 65.643 116.023 63.4176C119.598 61.1922 122.427 57.9134 124.511 53.581C126.618 49.2486 127.671 43.9337 127.671 37.6364ZM143.998 9.08523V1.27273H198.543V9.08523H175.674V74H166.867V9.08523H143.998ZM212.135 74V1.27273H236.709C242.414 1.27273 247.078 2.30255 250.7 4.36221C254.346 6.3982 257.045 9.15625 258.797 12.6364C260.549 16.1165 261.425 19.9991 261.425 24.2841C261.425 28.5691 260.549 32.4635 258.797 35.9673C257.069 39.4711 254.393 42.2647 250.771 44.348C247.149 46.4077 242.509 47.4375 236.851 47.4375H219.237V39.625H236.567C240.473 39.625 243.61 38.9503 245.977 37.6009C248.345 36.2514 250.061 34.4285 251.126 32.1321C252.215 29.812 252.76 27.196 252.76 24.2841C252.76 21.3722 252.215 18.768 251.126 16.4716C250.061 14.1752 248.333 12.3759 245.942 11.0739C243.551 9.7481 240.378 9.08523 236.425 9.08523H220.942V74H212.135ZM284.418 1.27273V74H275.612V1.27273H284.418ZM359.747 1.27273V74H351.224L311.593 16.8977H310.883V74H302.076V1.27273H310.599L350.372 58.517H351.082V1.27273H359.747ZM427.085 24C426.304 21.6089 425.274 19.4664 423.996 17.5724C422.741 15.6548 421.238 14.0213 419.486 12.6719C417.758 11.3224 415.793 10.2926 413.591 9.58238C411.389 8.87216 408.974 8.51704 406.347 8.51704C402.038 8.51704 398.12 9.62973 394.592 11.8551C391.065 14.0805 388.259 17.3594 386.176 21.6918C384.093 26.0241 383.051 31.339 383.051 37.6364C383.051 43.9337 384.105 49.2486 386.212 53.581C388.319 57.9134 391.171 61.1922 394.77 63.4176C398.368 65.643 402.417 66.7557 406.915 66.7557C411.081 66.7557 414.751 65.8679 417.923 64.0923C421.119 62.2931 423.605 59.7599 425.381 56.4929C427.18 53.2022 428.08 49.3314 428.08 44.8807L430.778 45.4489H408.903V37.6364H436.602V45.4489C436.602 51.4384 435.324 56.6468 432.767 61.0739C430.234 65.5009 426.73 68.9337 422.256 71.3722C417.805 73.7869 412.691 74.9943 406.915 74.9943C400.475 74.9943 394.817 73.4792 389.94 70.4489C385.087 67.4186 381.299 63.1098 378.577 57.5227C375.878 51.9356 374.528 45.3068 374.528 37.6364C374.528 31.8835 375.298 26.7107 376.837 22.1179C378.399 17.5014 380.601 13.5715 383.442 10.3281C386.283 7.08475 389.644 4.59896 393.527 2.87074C397.41 1.14252 401.683 0.278406 406.347 0.278406C410.182 0.278406 413.757 0.858425 417.071 2.01846C420.409 3.15483 423.38 4.77651 425.984 6.88352C428.612 8.96685 430.802 11.4645 432.554 14.3764C434.306 17.2647 435.513 20.4725 436.176 24H427.085Z" fill="#EB0089"/>
<path d="M0.806819 74H-0.193181V75H0.806819V74ZM0.806819 1.27273V0.272725H-0.193181V1.27273H0.806819ZM9.61364 1.27273H10.6136V0.272725H9.61364V1.27273ZM9.61364 33.6591H8.61364V34.6591H9.61364V33.6591ZM48.392 33.6591V34.6591H49.392V33.6591H48.392ZM48.392 1.27273V0.272725H47.392V1.27273H48.392ZM57.1989 1.27273H58.1989V0.272725H57.1989V1.27273ZM57.1989 74V75H58.1989V74H57.1989ZM48.392 74H47.392V75H48.392V74ZM48.392 41.4716H49.392V40.4716H48.392V41.4716ZM9.61364 41.4716V40.4716H8.61364V41.4716H9.61364ZM9.61364 74V75H10.6136V74H9.61364ZM1.80682 74V1.27273H-0.193181V74H1.80682ZM0.806819 2.27273H9.61364V0.272725H0.806819V2.27273ZM8.61364 1.27273V33.6591H10.6136V1.27273H8.61364ZM9.61364 34.6591H48.392V32.6591H9.61364V34.6591ZM49.392 33.6591V1.27273H47.392V33.6591H49.392ZM48.392 2.27273H57.1989V0.272725H48.392V2.27273ZM56.1989 1.27273V74H58.1989V1.27273H56.1989ZM57.1989 73H48.392V75H57.1989V73ZM49.392 74V41.4716H47.392V74H49.392ZM48.392 40.4716H9.61364V42.4716H48.392V40.4716ZM8.61364 41.4716V74H10.6136V41.4716H8.61364ZM9.61364 73H0.806819V75H9.61364V73ZM132.039 57.5227L131.143 57.0786L131.143 57.0786L132.039 57.5227ZM120.64 70.4489L121.171 71.2959L121.171 71.2959L120.64 70.4489ZM87.5433 70.4489L87.0118 71.2959L87.0118 71.2959L87.5433 70.4489ZM76.1442 57.5227L77.0401 57.0786L77.0401 57.0786L76.1442 57.5227ZM120.64 4.82386L121.171 3.9768L121.171 3.9768L120.64 4.82386ZM132.039 17.75L131.143 18.1942L131.143 18.1942L132.039 17.75ZM124.511 21.6918L123.609 22.1251L123.611 22.1291L124.511 21.6918ZM116.023 11.8551L115.492 12.7025L115.495 12.7041L116.023 11.8551ZM92.1243 11.8551L91.5958 11.0062L91.5933 11.0077L92.1243 11.8551ZM83.6371 21.6918L82.7378 21.2544L82.7359 21.2584L83.6371 21.6918ZM83.6371 53.581L82.7359 54.0143L82.7378 54.0183L83.6371 53.581ZM92.1243 63.4176L91.5933 64.265L91.5958 64.2666L92.1243 63.4176ZM116.023 63.4176L115.495 62.5687L115.492 62.5703L116.023 63.4176ZM124.511 53.581L123.611 53.1436L123.609 53.1476L124.511 53.581ZM135.194 37.6364C135.194 45.1875 133.831 51.6576 131.143 57.0786L132.935 57.9669C135.787 52.2136 137.194 45.4261 137.194 37.6364H135.194ZM131.143 57.0786C128.447 62.5164 124.767 66.6787 120.108 69.6018L121.171 71.2959C126.172 68.1584 130.091 63.7033 132.935 57.9669L131.143 57.0786ZM120.108 69.6018C115.452 72.5234 110.123 73.9943 104.092 73.9943V75.9943C110.465 75.9943 116.169 74.4349 121.171 71.2959L120.108 69.6018ZM104.092 73.9943C98.0598 73.9943 92.7312 72.5234 88.0748 69.6018L87.0118 71.2959C92.0146 74.4349 97.7181 75.9943 104.092 75.9943V73.9943ZM88.0748 69.6018C83.4161 66.6787 79.736 62.5164 77.0401 57.0786L75.2482 57.9669C78.0921 63.7033 82.0115 68.1584 87.0118 71.2959L88.0748 69.6018ZM77.0401 57.0786C74.3526 51.6576 72.9893 45.1875 72.9893 37.6364H70.9893C70.9893 45.4261 72.396 52.2136 75.2482 57.9669L77.0401 57.0786ZM72.9893 37.6364C72.9893 30.0852 74.3526 23.6151 77.0401 18.1942L75.2482 17.3058C72.396 23.0591 70.9893 29.8466 70.9893 37.6364H72.9893ZM77.0401 18.1942C79.736 12.7564 83.4161 8.59404 88.0748 5.67093L87.0118 3.9768C82.0115 7.11429 78.0921 11.5694 75.2482 17.3058L77.0401 18.1942ZM88.0748 5.67093C92.7312 2.7493 98.0598 1.27841 104.092 1.27841V-0.721594C97.7181 -0.721594 92.0146 0.837821 87.0118 3.9768L88.0748 5.67093ZM104.092 1.27841C110.123 1.27841 115.452 2.7493 120.108 5.67093L121.171 3.9768C116.169 0.837821 110.465 -0.721594 104.092 -0.721594V1.27841ZM120.108 5.67093C124.767 8.59404 128.447 12.7564 131.143 18.1942L132.935 17.3058C130.091 11.5694 126.172 7.11429 121.171 3.9768L120.108 5.67093ZM131.143 18.1942C133.831 23.6151 135.194 30.0852 135.194 37.6364H137.194C137.194 29.8466 135.787 23.0591 132.935 17.3058L131.143 18.1942ZM128.671 37.6364C128.671 31.2322 127.6 25.7583 125.41 21.2544L123.611 22.1291C125.635 26.29 126.671 31.4458 126.671 37.6364H128.671ZM125.412 21.2584C123.258 16.7798 120.31 13.3455 116.552 11.0062L115.495 12.7041C118.887 14.8155 121.596 17.939 123.609 22.1251L125.412 21.2584ZM116.554 11.0077C112.836 8.67746 108.673 7.51704 104.092 7.51704V9.51704C108.317 9.51704 112.109 10.582 115.492 12.7025L116.554 11.0077ZM104.092 7.51704C99.5104 7.51704 95.3366 8.67743 91.5958 11.0062L92.6528 12.7041C96.0616 10.582 99.8661 9.51704 104.092 9.51704V7.51704ZM91.5933 11.0077C87.8608 13.3468 84.9142 16.7793 82.7378 21.2544L84.5364 22.1291C86.574 17.9395 89.2855 14.8142 92.6553 12.7025L91.5933 11.0077ZM82.7359 21.2584C80.5706 25.7611 79.5121 31.2336 79.5121 37.6364H81.5121C81.5121 31.4444 82.5369 26.2872 84.5383 22.1251L82.7359 21.2584ZM79.5121 37.6364C79.5121 44.0391 80.5706 49.5116 82.7359 54.0143L84.5383 53.1476C82.5369 48.9856 81.5121 43.8283 81.5121 37.6364H79.5121ZM82.7378 54.0183C84.9142 58.4934 87.8608 61.9259 91.5933 64.265L92.6553 62.5703C89.2855 60.4585 86.574 57.3333 84.5364 53.1436L82.7378 54.0183ZM91.5958 64.2666C95.3366 66.5953 99.5104 67.7557 104.092 67.7557V65.7557C99.8661 65.7557 96.0616 64.6907 92.6528 62.5687L91.5958 64.2666ZM104.092 67.7557C108.673 67.7557 112.836 66.5953 116.554 64.265L115.492 62.5703C112.109 64.6907 108.317 65.7557 104.092 65.7557V67.7557ZM116.552 64.2666C120.31 61.9272 123.258 58.493 125.412 54.0143L123.609 53.1476C121.596 57.3337 118.887 60.4573 115.495 62.5687L116.552 64.2666ZM125.41 54.0183C127.6 49.5145 128.671 44.0405 128.671 37.6364H126.671C126.671 43.8269 125.635 48.9827 123.611 53.1436L125.41 54.0183ZM143.998 9.08523H142.998V10.0852H143.998V9.08523ZM143.998 1.27273V0.272725H142.998V1.27273H143.998ZM198.543 1.27273H199.543V0.272725H198.543V1.27273ZM198.543 9.08523V10.0852H199.543V9.08523H198.543ZM175.674 9.08523V8.08523H174.674V9.08523H175.674ZM175.674 74V75H176.674V74H175.674ZM166.867 74H165.867V75H166.867V74ZM166.867 9.08523H167.867V8.08523H166.867V9.08523ZM144.998 9.08523V1.27273H142.998V9.08523H144.998ZM143.998 2.27273H198.543V0.272725H143.998V2.27273ZM197.543 1.27273V9.08523H199.543V1.27273H197.543ZM198.543 8.08523H175.674V10.0852H198.543V8.08523ZM174.674 9.08523V74H176.674V9.08523H174.674ZM175.674 73H166.867V75H175.674V73ZM167.867 74V9.08523H165.867V74H167.867ZM166.867 8.08523H143.998V10.0852H166.867V8.08523ZM212.135 74H211.135V75H212.135V74ZM212.135 1.27273V0.272725H211.135V1.27273H212.135ZM250.7 4.36221L250.206 5.23153L250.213 5.2353L250.7 4.36221ZM258.797 12.6364L257.904 13.086L257.904 13.086L258.797 12.6364ZM258.797 35.9673L257.902 35.5201L257.9 35.525L258.797 35.9673ZM250.771 44.348L251.266 45.2173L251.27 45.2149L250.771 44.348ZM219.237 47.4375H218.237V48.4375H219.237V47.4375ZM219.237 39.625V38.625H218.237V39.625H219.237ZM245.977 37.6009L245.482 36.7321L245.482 36.7321L245.977 37.6009ZM251.126 32.1321L250.221 31.7072L250.219 31.7113L251.126 32.1321ZM251.126 16.4716L250.219 16.8924L250.223 16.9001L251.126 16.4716ZM245.942 11.0739L245.457 11.9485L245.464 11.9521L245.942 11.0739ZM220.942 9.08523V8.08523H219.942V9.08523H220.942ZM220.942 74V75H221.942V74H220.942ZM213.135 74V1.27273H211.135V74H213.135ZM212.135 2.27273H236.709V0.272725H212.135V2.27273ZM236.709 2.27273C242.302 2.27273 246.78 3.2834 250.206 5.2315L251.195 3.49292C247.376 1.32171 242.526 0.272725 236.709 0.272725V2.27273ZM250.213 5.2353C253.697 7.18119 256.248 9.79741 257.904 13.086L259.69 12.1867C257.842 8.51509 254.995 5.61521 251.188 3.48913L250.213 5.2353ZM257.904 13.086C259.579 16.4131 260.425 20.1394 260.425 24.2841H262.425C262.425 19.8587 261.519 15.8198 259.69 12.1867L257.904 13.086ZM260.425 24.2841C260.425 28.4287 259.579 32.1679 257.902 35.5201L259.691 36.4145C261.519 32.7592 262.425 28.7096 262.425 24.2841H260.425ZM257.9 35.525C256.266 38.8383 253.736 41.4895 250.273 43.4812L251.27 45.2149C255.051 43.0399 257.872 40.1039 259.694 36.4097L257.9 35.525ZM250.277 43.4787C246.85 45.4274 242.395 46.4375 236.851 46.4375V48.4375C242.623 48.4375 247.448 47.3879 251.266 45.2173L250.277 43.4787ZM236.851 46.4375H219.237V48.4375H236.851V46.4375ZM220.237 47.4375V39.625H218.237V47.4375H220.237ZM219.237 40.625H236.567V38.625H219.237V40.625ZM236.567 40.625C240.576 40.625 243.903 39.9344 246.472 38.4696L245.482 36.7321C243.317 37.9662 240.37 38.625 236.567 38.625V40.625ZM246.472 38.4696C249.006 37.0256 250.874 35.0525 252.034 32.5529L250.219 31.7113C249.248 33.8045 247.684 35.4772 245.482 36.7321L246.472 38.4696ZM252.032 32.557C253.191 30.087 253.76 27.3229 253.76 24.2841H251.76C251.76 27.0692 251.24 29.5371 250.221 31.7072L252.032 32.557ZM253.76 24.2841C253.76 21.2455 253.191 18.4917 252.03 16.0431L250.223 16.9001C251.24 19.0443 251.76 21.4988 251.76 24.2841H253.76ZM252.034 16.0508C250.871 13.5448 248.984 11.592 246.42 10.1956L245.464 11.9521C247.681 13.1598 249.251 14.8055 250.219 16.8924L252.034 16.0508ZM246.427 10.1993C243.836 8.76267 240.477 8.08523 236.425 8.08523V10.0852C240.279 10.0852 243.266 10.7335 245.457 11.9484L246.427 10.1993ZM236.425 8.08523H220.942V10.0852H236.425V8.08523ZM219.942 9.08523V74H221.942V9.08523H219.942ZM220.942 73H212.135V75H220.942V73ZM284.418 1.27273H285.418V0.272725H284.418V1.27273ZM284.418 74V75H285.418V74H284.418ZM275.612 74H274.612V75H275.612V74ZM275.612 1.27273V0.272725H274.612V1.27273H275.612ZM283.418 1.27273V74H285.418V1.27273H283.418ZM284.418 73H275.612V75H284.418V73ZM276.612 74V1.27273H274.612V74H276.612ZM275.612 2.27273H284.418V0.272725H275.612V2.27273ZM359.747 1.27273H360.747V0.272725H359.747V1.27273ZM359.747 74V75H360.747V74H359.747ZM351.224 74L350.403 74.5702L350.701 75H351.224V74ZM311.593 16.8977L312.415 16.3276L312.117 15.8977H311.593V16.8977ZM310.883 16.8977V15.8977H309.883V16.8977H310.883ZM310.883 74V75H311.883V74H310.883ZM302.076 74H301.076V75H302.076V74ZM302.076 1.27273V0.272725H301.076V1.27273H302.076ZM310.599 1.27273L311.42 0.702138L311.122 0.272725H310.599V1.27273ZM350.372 58.517L349.551 59.0876L349.849 59.517H350.372V58.517ZM351.082 58.517V59.517H352.082V58.517H351.082ZM351.082 1.27273V0.272725H350.082V1.27273H351.082ZM358.747 1.27273V74H360.747V1.27273H358.747ZM359.747 73H351.224V75H359.747V73ZM352.046 73.4298L312.415 16.3276L310.772 17.4679L350.403 74.5702L352.046 73.4298ZM311.593 15.8977H310.883V17.8977H311.593V15.8977ZM309.883 16.8977V74H311.883V16.8977H309.883ZM310.883 73H302.076V75H310.883V73ZM303.076 74V1.27273H301.076V74H303.076ZM302.076 2.27273H310.599V0.272725H302.076V2.27273ZM309.778 1.84331L349.551 59.0876L351.193 57.9465L311.42 0.702138L309.778 1.84331ZM350.372 59.517H351.082V57.517H350.372V59.517ZM352.082 58.517V1.27273H350.082V58.517H352.082ZM351.082 2.27273H359.747V0.272725H351.082V2.27273ZM427.085 24L426.135 24.3106L426.36 25H427.085V24ZM423.996 17.5724L423.159 18.12L423.163 18.126L423.167 18.1319L423.996 17.5724ZM419.486 12.6719L418.87 13.4601L418.876 13.4641L419.486 12.6719ZM413.591 9.58238L413.898 8.63067L413.898 8.63067L413.591 9.58238ZM394.592 11.8551L394.059 11.0094L394.592 11.8551ZM386.176 21.6918L387.077 22.1251L387.077 22.1251L386.176 21.6918ZM386.212 53.581L385.312 54.0183L385.312 54.0183L386.212 53.581ZM394.77 63.4176L394.244 64.2681L394.77 63.4176ZM417.923 64.0923L418.412 64.9649L418.414 64.9637L417.923 64.0923ZM425.381 56.4929L424.503 56.0132L424.502 56.0154L425.381 56.4929ZM428.08 44.8807L428.286 43.9021L427.08 43.6482V44.8807H428.08ZM430.778 45.4489V46.4489L430.984 44.4703L430.778 45.4489ZM408.903 45.4489H407.903V46.4489H408.903V45.4489ZM408.903 37.6364V36.6364H407.903V37.6364H408.903ZM436.602 37.6364H437.602V36.6364H436.602V37.6364ZM432.767 61.0739L431.901 60.5737L431.899 60.5772L432.767 61.0739ZM422.256 71.3722L422.733 72.2511L422.734 72.2502L422.256 71.3722ZM389.94 70.4489L389.411 71.2971L389.413 71.2982L389.94 70.4489ZM378.577 57.5227L377.676 57.9577L377.678 57.9608L378.577 57.5227ZM376.837 22.1179L375.889 21.7973L375.888 21.8002L376.837 22.1179ZM383.442 10.3281L384.194 10.987L384.194 10.987L383.442 10.3281ZM393.527 2.87074L393.12 1.95716L393.527 2.87074ZM417.071 2.01846L416.741 2.96236L416.749 2.96511L417.071 2.01846ZM425.984 6.88352L425.355 7.66097L425.363 7.66714L425.984 6.88352ZM432.554 14.3764L431.697 14.8919L431.699 14.895L432.554 14.3764ZM436.176 24V25H437.382L437.159 23.8153L436.176 24ZM428.036 23.6894C427.229 21.2189 426.16 18.9911 424.825 17.013L423.167 18.1319C424.388 19.9416 425.379 21.9989 426.135 24.3106L428.036 23.6894ZM424.833 17.0249C423.519 15.0171 421.94 13.2999 420.096 11.8796L418.876 13.4641C420.536 14.7428 421.963 16.2926 423.159 18.12L424.833 17.0249ZM420.101 11.8837C418.276 10.4582 416.205 9.3749 413.898 8.63067L413.284 10.5341C415.38 11.2103 417.24 12.1867 418.87 13.4601L420.101 11.8837ZM413.898 8.63067C411.585 7.88443 409.065 7.51704 406.347 7.51704V9.51704C408.884 9.51704 411.194 9.85988 413.284 10.5341L413.898 8.63067ZM406.347 7.51704C401.856 7.51704 397.751 8.67976 394.059 11.0094L395.126 12.7009C398.488 10.5797 402.22 9.51704 406.347 9.51704V7.51704ZM394.059 11.0094C390.349 13.3495 387.427 16.7831 385.275 21.2584L387.077 22.1251C389.092 17.9356 391.78 14.8115 395.126 12.7009L394.059 11.0094ZM385.275 21.2584C383.11 25.7611 382.051 31.2336 382.051 37.6364H384.051C384.051 31.4444 385.076 26.2872 387.077 22.1251L385.275 21.2584ZM382.051 37.6364C382.051 44.0405 383.122 49.5145 385.312 54.0183L387.111 53.1436C385.087 48.9827 384.051 43.8269 384.051 37.6364H382.051ZM385.312 54.0183C387.49 58.4968 390.463 61.9299 394.244 64.2681L395.296 62.5671C391.88 60.4546 389.147 57.3299 387.111 53.1436L385.312 54.0183ZM394.244 64.2681C398.011 66.5975 402.243 67.7557 406.915 67.7557V65.7557C402.59 65.7557 398.726 64.6885 395.296 62.5671L394.244 64.2681ZM406.915 67.7557C411.227 67.7557 415.07 66.8356 418.412 64.9649L417.435 63.2197C414.432 64.9002 410.936 65.7557 406.915 65.7557V67.7557ZM418.414 64.9637C421.776 63.0709 424.395 60.4002 426.259 56.9704L424.502 56.0154C422.815 59.1197 420.463 61.5152 417.433 63.2209L418.414 64.9637ZM426.258 56.9726C428.152 53.5096 429.08 49.4678 429.08 44.8807H427.08C427.08 49.1951 426.208 52.8948 424.503 56.0132L426.258 56.9726ZM427.874 45.8592L430.572 46.4274L430.984 44.4703L428.286 43.9021L427.874 45.8592ZM430.778 44.4489H408.903V46.4489H430.778V44.4489ZM409.903 45.4489V37.6364H407.903V45.4489H409.903ZM408.903 38.6364H436.602V36.6364H408.903V38.6364ZM435.602 37.6364V45.4489H437.602V37.6364H435.602ZM435.602 45.4489C435.602 51.2932 434.356 56.323 431.901 60.5737L433.633 61.574C436.292 56.9705 437.602 51.5836 437.602 45.4489H435.602ZM431.899 60.5772C429.458 64.8437 426.089 68.1444 421.777 70.4941L422.734 72.2502C427.371 69.7231 431.01 66.1582 433.635 61.5705L431.899 60.5772ZM421.779 70.4932C417.494 72.8179 412.548 73.9943 406.915 73.9943V75.9943C412.834 75.9943 418.116 74.7559 422.733 72.2511L421.779 70.4932ZM406.915 73.9943C400.639 73.9943 395.168 72.5197 390.468 69.5995L389.413 71.2982C394.467 74.4386 400.312 75.9943 406.915 75.9943V73.9943ZM390.47 69.6006C385.79 66.6782 382.123 62.5182 379.476 57.0847L377.678 57.9608C380.475 63.7015 384.385 68.1589 389.411 71.2971L390.47 69.6006ZM379.477 57.0878C376.857 51.6645 375.528 45.191 375.528 37.6364H373.528C373.528 45.4226 374.898 52.2067 377.676 57.9577L379.477 57.0878ZM375.528 37.6364C375.528 31.9718 376.286 26.9088 377.785 22.4356L375.888 21.8002C374.31 26.5126 373.528 31.7952 373.528 37.6364H375.528ZM377.784 22.4385C379.31 17.9303 381.45 14.1195 384.194 10.987L382.69 9.66923C379.751 13.0235 377.489 17.0725 375.889 21.7973L377.784 22.4385ZM384.194 10.987C386.941 7.85093 390.185 5.45278 393.934 3.78432L393.12 1.95716C389.104 3.74513 385.624 6.31858 382.69 9.66923L384.194 10.987ZM393.934 3.78432C397.676 2.11842 401.809 1.27841 406.347 1.27841V-0.721594C401.556 -0.721594 397.143 0.166615 393.12 1.95716L393.934 3.78432ZM406.347 1.27841C410.08 1.27841 413.542 1.84272 416.741 2.96232L417.401 1.0746C413.971 -0.125866 410.284 -0.721594 406.347 -0.721594V1.27841ZM416.749 2.96511C419.981 4.06557 422.847 5.63178 425.355 7.66093L426.613 6.10611C423.913 3.92124 420.837 2.24408 417.393 1.07181L416.749 2.96511ZM425.363 7.66714C427.896 9.67495 430.006 12.0814 431.697 14.8919L433.411 13.8609C431.598 10.8476 429.329 8.25876 426.606 6.0999L425.363 7.66714ZM431.699 14.895C433.385 17.6743 434.551 20.7679 435.193 24.1847L437.159 23.8153C436.475 20.1772 435.227 16.8551 433.409 13.8578L431.699 14.895ZM436.176 23H427.085V25H436.176V23Z" fill="#EB0089" mask="url(#path-1-outside-1_0_3)"/>
</svg>
